Patient4_TMGait_0pt6_01_right_26_GRF.mot
version=1
nRows=26
nColumns=19
inDegrees=no
endheader
time	F1x	F1y	F1z	M1x	M1y	M1z	F2x	F2y	F2z	M2x	M2y	M2z	EC1x	EC1y	EC1z	EC2x	EC2y	EC2z
31.04	-25.439	743.8526	50.0155	-288.7134	-54.5508	712.8223	-3.4672	2.7504	1.8321	0.81298	-2.8304	8.3742	-0.0592	0.0182	-0.0073	-0.0462	0.0165	0.9585
31.0521	-19.9792	736.3593	51.6181	-285.3371	-54.0545	705.4067	-2.346	2.28	1.2269	0.74883	-1.8641	6.07	-0.0592	0.0182	-0.0073	-0.0462	0.0165	0.9585
31.0641	-14.6069	729.1294	53.0831	-281.908	-53.2953	697.0814	-1.4339	1.97	0.71098	0.71984	-1.0292	4.25	-0.0592	0.0182	-0.0073	-0.0462	0.0165	0.9585
31.0762	-9.56	722.8693	54.2918	-278.7393	-52.2614	688.5172	-0.76711	1.8117	0.31205	0.72096	-0.381	2.9785	-0.0592	0.0182	-0.0073	-0.0462	0.0165	0.9585
31.0883	-4.9046	718.0774	55.1672	-276.0801	-50.9359	680.3332	-0.32842	1.7721	0.032197	0.74449	0.072385	2.2005	-0.0592	0.0182	-0.0073	-0.0462	0.0165	0.9585
31.1004	-0.6318	715.0478	55.7208	-274.0908	-49.3607	673.0076	-0.086919	1.8142	-0.15137	0.78204	0.36816	1.8215	-0.0592	0.0182	-0.0073	-0.0462	0.0165	0.9585
31.1124	3.3004	713.853	55.9931	-272.8376	-47.5931	666.8268	0.013282	1.8848	-0.26502	0.81963	0.54776	1.6965	-0.0592	0.0182	-0.0073	-0.0462	0.0165	0.9585
31.1245	6.9848	714.3855	56.0516	-272.3029	-45.6976	661.8962	0.0038158	1.9458	-0.32627	0.84304	0.64846	1.7087	-0.0592	0.0182	-0.0073	-0.0462	0.0165	0.9585
31.1366	10.522	716.4181	55.9732	-272.4098	-43.7326	658.1683	-0.06809	1.9277	-0.3597	0.82797	0.70435	1.7064	-0.0592	0.0182	-0.0073	-0.0462	0.0165	0.9585
31.1486	14.0155	719.6859	55.8106	-273.0543	-41.7222	655.5006	-0.19149	1.7694	-0.38041	0.75007	0.74513	1.5893	-0.0592	0.0182	-0.0073	-0.0462	0.0165	0.9585
31.1607	17.5599	723.9535	55.6179	-274.1297	-39.686	653.7643	-0.32559	1.3721	-0.40651	0.57477	0.79094	1.2062	-0.0592	0.0182	-0.0073	-0.0462	0.0165	0.9585
31.1728	21.2231	729.0119	55.4243	-275.5282	-37.619	652.8189	-0.47456	0.66455	-0.4385	0.27298	0.84996	0.46654	-0.0592	0.0182	-0.0073	-0.0462	0.0165	0.9585
31.1849	25.0207	734.6797	55.2988	-277.1419	-35.5668	652.5498	-0.58784	-0.42618	-0.47582	-0.18299	0.9087	-0.72894	-0.0592	0.0182	-0.0073	-0.0462	0.0165	0.9585
31.1969	28.9575	740.7796	55.3112	-278.8632	-33.5833	652.838	-0.64719	-1.916	-0.49837	-0.79994	0.93312	-2.3861	-0.0592	0.0182	-0.0073	-0.0462	0.0165	0.9585
31.209	32.9805	747.0993	55.5635	-280.5761	-31.7752	653.5321	-0.57785	-3.7557	-0.47853	-1.5542	0.86084	-4.4418	-0.0592	0.0182	-0.0073	-0.0462	0.0165	0.9585
31.2211	37.0127	753.3653	56.1141	-282.1557	-30.2178	654.4087	-0.31932	-5.7362	-0.37328	-2.3593	0.61448	-6.642	-0.0592	0.0182	-0.0073	-0.0462	0.0165	0.9585
31.2331	40.9711	759.2693	57.006	-283.4795	-28.9838	655.2239	0.23337	-7.463	-0.12828	-3.0496	0.094343	-8.5615	-0.0592	0.0182	-0.0073	-0.0462	0.0165	0.9585
31.2452	44.7848	764.5182	58.1901	-284.4564	-28.0619	655.7238	1.1589	-8.2406	0.32274	-3.3408	-0.80288	-9.433	-0.0592	0.0182	-0.0073	-0.0462	0.0165	0.9585
31.2573	48.4299	768.8712	59.5881	-285.0327	-27.4042	655.6705	2.5315	-7.071	1.0454	-2.8213	-2.1722	-8.1657	-0.0592	0.0182	-0.0073	-0.0462	0.0165	0.9585
31.2694	51.9266	772.0978	61.0743	-285.1668	-26.9071	654.8315	4.3568	-2.5816	2.0889	-0.93069	-4.0609	-3.2389	-0.0592	0.0182	-0.0073	-0.0462	0.0165	0.9585
31.2814	55.3208	773.8745	62.5209	-284.788	-26.4568	652.8911	6.5441	6.8831	3.4489	3.0094	-6.4139	7.1727	-0.0592	0.0182	-0.0073	-0.0462	0.0165	0.9585
31.2935	58.6562	773.7045	63.7753	-283.762	-25.9181	649.4092	8.8232	23.117	5.0339	9.7295	-9.0087	25.0552	-0.0592	0.0182	-0.0073	-0.0462	0.0165	0.9585
31.3056	61.9783	770.7836	64.6582	-281.8385	-25.1403	643.7037	10.6806	47.6785	6.6143	19.8616	-11.375	52.1382	-0.0592	0.0182	-0.0073	-0.0462	0.0165	0.9585
31.3176	65.2434	763.9569	64.9517	-278.6302	-23.972	634.8453	11.2029	81.4023	7.8351	33.7334	-12.7481	89.352	-0.0592	0.0182	-0.0073	-0.0462	0.0165	0.9585
31.3297	68.3205	751.7297	64.3989	-273.617	-22.2682	621.6675	9.2196	123.6595	8.3128	51.0656	-12.225	136.006	-0.0592	0.0182	-0.0073	-0.0462	0.0165	0.9585
31.3418	70.948	732.4457	62.7363	-266.2091	-19.9329	602.9339	4.0577	171.7868	7.4745	70.7347	-8.9269	189.1475	-0.0592	0.0182	-0.0073	-0.0462	0.0165	0.9585
